<?xml version="1.0" encoding="utf-8"?>
<!-- Generator: Adobe Illustrator 19.1.0, SVG Export Plug-In . SVG Version: 6.00 Build 0)  -->
<svg version="1.1" id="Layer_1" xmlns="http://www.w3.org/2000/svg" xmlns:xlink="http://www.w3.org/1999/xlink" x="0px" y="0px"
	 viewBox="0 0 500 500" style="enable-background:new 0 0 500 500;" xml:space="preserve">
<style type="text/css">
	.st0{fill:#009BDE;}
</style>
<g>
	<path class="st0" d="M340.6,271.4c-1.9,0-3.6,1.6-3.6,3.6c0,1.9,1.6,3.6,3.6,3.6c1.9,0,3.6-1.6,3.6-3.6
		C344.2,273,342.6,271.4,340.6,271.4z"/>
	<path class="st0" d="M220.8,239.1c0.1-0.4,0.3-0.8,0.4-1.2c-0.1,0.3-0.5,1.2-0.5,1.3C220.7,239.2,220.7,239.2,220.8,239.1z"/>
	<path class="st0" d="M309.1,263.4C309.9,263.4,309.1,262.9,309.1,263.4L309.1,263.4z"/>
	<path class="st0" d="M332.4,263.6c-1-0.8-2.3-0.9-3.4-0.1c-0.3,0.2-0.5,0.4-0.6,0.7c-2.8,2.5-6,4.7-9.5,6.1
		c-1.7,0.7-3.5,1.2-5.4,1.1c-1.8-0.1-2.9-1.3-3.7-2.8c3.6-1,7.1-2.8,9.7-5.6c1.8-2,3.6-4.7,3.8-7.4c0.2-2.7-0.9-5.3-3.1-6.9
		c-4.8-3.5-11.2-1-14.4,3.4c-1.7,2.4-2.7,5.2-3.5,8c-0.7,2.6-1,5.1-0.6,7.7c-0.1,0.1-0.3,0.2-0.4,0.3c-0.6,0.4-1.4,1.1-2.1,1.3
		c-0.7,0.2-1.3,1-2,1.4c-0.8,0.4-2.1,1-2.9,0.3c-0.8-0.8-1-2.3-1-3.4c-0.1-1.3,0.1-2.6,0.2-4c0.3-2.7,0.7-5.4,1.2-8.1
		c0.4-2.3,1.1-4.9-0.4-7.1c-1.5-2.1-4.9-1.5-6.5,0.1c-0.9,0.9-1.5,2.1-2.2,3.3c-0.7,1.2-1.3,2.5-2,3.7c-0.7,1.3-1.1,2.8-1.7,4.1
		c-0.2,0.5-0.5,0.9-0.7,1.4c-0.1,0.3-0.4,0.2-0.7,0.2c0-3.4,1.3-6.8,1.3-10.2c0-1.4-0.4-3.2-1.9-3.7c-1.7-0.5-3.4,0.1-4.4,1.6
		c-1,1.4-1.2,3.5-1.5,5.1c-0.4,1.9-0.7,3.9-0.9,5.9c-0.2,1.5-0.4,3-0.5,4.5c-1.5,2-3.2,4.1-5.3,5.6c-0.9,0.7-2.4,1.7-3.6,1.3
		c-1-0.3-0.9-1.9-1-2.7c-0.1-2.8,0.7-5.6,1.3-8.4c0.6-2.8,1.4-5.8,1.1-8.7c-0.1-0.6-0.2-1-0.4-1.3c-0.5-1.1-1.7-2-2.6-2.5
		c-1.1-0.6-2.3-0.8-3.6-0.9c-1.1,0-2.8-0.1-3.8,0.4c-1,0.2-1.9,0.5-2.8,1c-5.3,2.6-8.7,7.7-10.9,13c-0.6,1.4-1.1,2.9-1.4,4.5
		c-1.3,1.5-2.8,2.8-4.4,3.9c-1.1,0.8-2.5,1.5-3.9,1.5c-1.2,0-1.4-2-1.4-2.8c0-2.6,0.6-5.1,1.7-7.5c1.1-2.3,2.5-4.4,3.3-6.8
		c0.7-2.1,1.5-5.6-0.1-7.5c-1.7-1.9-4.4-0.3-5.9,0.9c-4.3,3.2-7.8,7.4-10.9,11.7l-0.6-0.4c1.2-2.3,2.5-4.6,3.7-6.9
		c2.9-5.6,5.6-11.3,7.5-17.3c0.9-2.9,1.7-5.8,1.9-8.8c0.1-2.4,0-5.5-2.1-7.1c-2.1-1.5-5.5-1.1-7.7-0.1c-2.4,1.1-4.3,3.2-5.7,5.4
		c-3.2,5-4.8,11-5.6,16.9c-0.9,6.3-1.9,12.5-2.3,18.8c-0.2,2.9-0.2,5.7-0.3,8.6c-1.1-1.3-2.4-2.5-3.9-3.5c-1-0.7-2-1.3-3.1-1.9
		c-0.4-1.8-1.1-3.5-2.2-5c-3.4-4.9-9.3-7.4-14.5-10c-4.3-2.1-11.6-5-11.6-10.8c0-3.9,4.2-6.1,7.5-6.8c3.6-0.7,8-0.5,11.4,0.9
		c1.6,0.7,3.2,1.8,3.8,3.5c0.7,1.7,0.2,3.6-0.6,5.2c-0.8,1.7-2,3.2-2.4,5.1c-0.3,1.7,0.4,3.3,2.3,3.1c2.7-0.2,4.8-2.7,6.1-4.9
		c1.4-2.5,2.3-5.3,1.9-8.1c-0.7-5.7-5.9-9.6-11-11.3c-5.5-1.7-11.9-1.2-17.2,0.9c-5.1,2.1-9.7,6.4-9.9,12.2c-0.2,6,4.5,10.2,9.3,13
		c2.7,1.6,5.6,3,8.4,4.5c1.7,0.9,3.4,1.8,5,2.8c-5.6-1.5-11.5-1.2-17.2-0.6c-1.7,0.2-3.5,0.4-5.1,1.1c-0.2,0-0.5,0.1-0.7,0.2
		c-0.1,0.1-0.3,0.2-0.6,0.4c0,0,0,0,0,0l0,0c0.1-0.1,0.4-0.3,0.6-0.4c-0.8,0.3-1.5,0.6-2.1,0.9c-0.7,0.3-1.7,1.1-2.4,1.9
		c-1.6,1.6-2.4,4-2.4,6.3c0,13.1,15.6,16.9,26.1,15.2c5.7-0.9,11.6-3.5,15-8.3c1.1-1.6,1.9-3.4,2.3-5.2c1.5,1,2.8,2.2,4,3.6
		c0.9,1,1.7,2.1,2.5,3.2c0.7,0.9,1.4,2.4,2.5,3c0.7,0.4,1.5,0.3,2.1-0.1c0.6-0.3,1.1-0.9,1.5-1.5c1.5-2.6,2.5-5.4,4.1-7.9
		c1.6-2.6,3.4-5.1,5.3-7.5c0.8-1.1,1.7-2.1,2.7-3.1c0.6-0.6,0.8-0.8,1.6-0.7c-0.7,0.6-1.1,2-1.5,2.8c-0.6,1.2-1.1,2.5-1.5,3.7
		c-0.9,2.6-1.4,5.2-0.8,7.9c0.6,2.4,1.8,4.8,4.1,6c2.5,1.3,5.4,0.2,7.8-0.8c2.1-1,4.1-2.2,5.9-3.5c0.5,1.2,1.3,2.3,2.4,3.3
		c4.7,3.9,11.4,0.6,14.8-3.4c0.7,1.6,1.6,3.4,3.1,4.4c1.6,1,3.6,1,5.3,0.4c2.5-0.9,4.7-2.6,6.5-4.6c0.1,1.8,0.6,3.8,2.3,4.5
		c2.1,0.9,4-0.1,4.9-2c0.8-1.5,1.5-3,2.3-4.5c2-4,4-8,6-12h0.5c-0.6,4.2-1.2,8.4-0.7,12.7c0.2,1.6,0.6,3.3,1.6,4.7
		c1.1,1.6,2.6,1.6,4.3,1.2c2.8-0.5,5.4-2,7.8-3.3c0.9-0.5,1.8-1,2.7-1.5c2.1,3.1,5.4,5,9.5,5c6.5,0,12.5-3.9,17.2-8.2
		c0.6-0.5,1.2-1.1,1.7-1.7c0.6-0.3,1.1-0.8,1.2-1.6c0.2-0.9,0.1-1.8-0.4-2.5C333,264.2,332.8,263.9,332.4,263.6z M165,262.9
		c0.2-0.3,0.3-0.5,0.3-0.5C165.2,262.4,165.1,262.6,165,262.9L165,262.9z M191.8,266.3c-0.3,2.7-2.3,4.9-4.6,6.3
		c-4.8,3-11.9,3.8-17.2,1.7c-2.4-0.9-4.6-2.7-5.4-5.3c-0.6-2.1-0.1-4.1,0.3-6.1c0.8-1.2,2.6-1.6,3.9-1.8c1.9-0.3,3.9-0.3,5.8-0.2
		c2.1,0.1,4.2,0,6.2,0.3c2.9,0.3,5.8,1.1,8.5,2.2c0.8,0.3,1.6,0.7,2.4,1C191.9,265.1,191.9,265.7,191.8,266.3z M213.6,256
		c0.5-5,1.4-9.9,2.1-14.8c0.4-2.4,0.9-5.1,1.8-7.3c0.9-2,1.8-4,2.8-6c0.5-0.9,1-1.8,1.6-2.7c0.4-0.5,0.8-1.2,1.5-1.5
		c1.2-0.4,0.9,2.8,0.8,3.4c-0.4,3.7-1.7,7.4-3.1,10.9c0.1-0.2,0-0.1-0.4,1.2c0,0.1-0.1,0.2-0.1,0.1C218.5,244.9,216,250.4,213.6,256
		z M255.2,263.5c-0.3,2.8-1.4,6.3-3.6,8.2c-0.9,0.8-2.4,1.2-3.3,0.2c-0.9-0.9-1-2.5-1-3.7c0-3.2,1.4-6.6,3-9.3
		c1.5-2.6,4.1-5.7,7.3-5.7C256.8,256.6,256,260,255.2,263.5z M311.1,256c0.6-1,1.4-1.9,2.5-2.4c0.8-0.4,2.3-0.7,3,0
		c2,2,0.4,4.8-1.1,6.4c-1.6,1.7-4,3.4-6.4,3.4C309.1,260.9,309.9,258.2,311.1,256z"/>
	<path class="st0" d="M163.2,257.8C163.2,257.8,163.2,257.8,163.2,257.8C163.5,257.6,163.4,257.7,163.2,257.8z"/>
</g>
</svg>
